<svg width="391" height="42" viewBox="0 0 391 42" fill="none" xmlns="http://www.w3.org/2000/svg">
<path d="M15.072 17.52L14.176 24.32H16.544V26.88H13.824L13.168 32H10.16L10.832 26.88H6.784L6.112 32H3.104L3.776 26.88H1.488V24.32H4.112L5.04 17.52H2.672V14.944H5.376L6.032 9.92H9.056L8.352 14.944H12.416L13.088 9.92H16.096L15.408 14.944H17.728V17.52H15.072ZM7.12 24.32H11.168L12.08 17.52H8.016L7.12 24.32Z" fill="#C778DD"/>
<path d="M28.992 29.68C30.112 29.68 31.0027 29.4827 31.664 29.088C32.3253 28.6827 32.656 28.128 32.656 27.424C32.656 26.9653 32.56 26.576 32.368 26.256C32.176 25.9253 31.792 25.6267 31.216 25.36C30.64 25.0827 29.7653 24.7947 28.592 24.496C27.4827 24.208 26.5067 23.8667 25.664 23.472C24.832 23.0773 24.1867 22.5653 23.728 21.936C23.2693 21.3067 23.04 20.496 23.04 19.504C23.04 18.5333 23.312 17.6853 23.856 16.96C24.4 16.2347 25.1787 15.6693 26.192 15.264C27.216 14.8587 28.416 14.656 29.792 14.656C31.2107 14.656 32.448 14.8427 33.504 15.216C34.56 15.5893 35.4613 16.0533 36.208 16.608L34.704 18.864C34.0427 18.4267 33.3173 18.0693 32.528 17.792C31.7493 17.5147 30.8693 17.376 29.888 17.376C28.7467 17.376 27.9253 17.5467 27.424 17.888C26.9333 18.2293 26.688 18.6827 26.688 19.248C26.688 19.664 26.8107 20.016 27.056 20.304C27.312 20.5813 27.7493 20.8427 28.368 21.088C28.9867 21.3227 29.8613 21.6 30.992 21.92C32.0907 22.2187 33.0453 22.5707 33.856 22.976C34.6773 23.3813 35.312 23.92 35.76 24.592C36.2187 25.2533 36.448 26.1173 36.448 27.184C36.448 28.4 36.096 29.3973 35.392 30.176C34.6987 30.944 33.7813 31.5147 32.64 31.888C31.5093 32.2507 30.2933 32.432 28.992 32.432C27.424 32.432 26.0693 32.208 24.928 31.76C23.7867 31.3013 22.8267 30.7307 22.048 30.048L23.952 27.872C24.6133 28.4053 25.3707 28.8427 26.224 29.184C27.0773 29.5147 28 29.68 28.992 29.68ZM56.9155 15.104L50.0835 22.656L57.6355 32H53.2515L45.9875 22.752L52.7395 15.104H56.9155ZM45.7315 7.92V32H42.1475V8.32L45.7315 7.92ZM70.455 15.104V29.376H75.047V32H61.815V29.376H66.871V17.728H61.975V15.104H70.455ZM67.959 6.832C68.663 6.832 69.2283 7.04533 69.655 7.472C70.0923 7.89867 70.311 8.432 70.311 9.072C70.311 9.712 70.0923 10.2507 69.655 10.688C69.2283 11.1253 68.663 11.344 67.959 11.344C67.2763 11.344 66.7163 11.1253 66.279 10.688C65.8417 10.2507 65.623 9.712 65.623 9.072C65.623 8.432 65.8417 7.89867 66.279 7.472C66.7163 7.04533 67.2763 6.832 67.959 6.832ZM87.8345 8.32V27.392C87.8345 28.1707 88.0692 28.7253 88.5385 29.056C89.0185 29.376 89.6372 29.536 90.3945 29.536C90.8852 29.536 91.3492 29.4827 91.7865 29.376C92.2238 29.2693 92.6505 29.136 93.0665 28.976L93.9785 31.472C93.4772 31.728 92.8585 31.952 92.1225 32.144C91.3972 32.336 90.5652 32.432 89.6265 32.432C87.9305 32.432 86.6078 31.9573 85.6585 31.008C84.7198 30.048 84.2505 28.736 84.2505 27.072V10.96H79.1465V8.32H87.8345ZM107.022 8.32V27.392C107.022 28.1707 107.257 28.7253 107.726 29.056C108.206 29.376 108.825 29.536 109.582 29.536C110.073 29.536 110.537 29.4827 110.974 29.376C111.411 29.2693 111.838 29.136 112.254 28.976L113.166 31.472C112.665 31.728 112.046 31.952 111.31 32.144C110.585 32.336 109.753 32.432 108.814 32.432C107.118 32.432 105.795 31.9573 104.846 31.008C103.907 30.048 103.438 28.736 103.438 27.072V10.96H98.334V8.32H107.022ZM124.93 29.68C126.05 29.68 126.94 29.4827 127.602 29.088C128.263 28.6827 128.594 28.128 128.594 27.424C128.594 26.9653 128.498 26.576 128.306 26.256C128.114 25.9253 127.73 25.6267 127.154 25.36C126.578 25.0827 125.703 24.7947 124.53 24.496C123.42 24.208 122.444 23.8667 121.602 23.472C120.77 23.0773 120.124 22.5653 119.666 21.936C119.207 21.3067 118.978 20.496 118.978 19.504C118.978 18.5333 119.25 17.6853 119.794 16.96C120.338 16.2347 121.116 15.6693 122.13 15.264C123.154 14.8587 124.354 14.656 125.73 14.656C127.148 14.656 128.386 14.8427 129.442 15.216C130.498 15.5893 131.399 16.0533 132.146 16.608L130.642 18.864C129.98 18.4267 129.255 18.0693 128.466 17.792C127.687 17.5147 126.807 17.376 125.826 17.376C124.684 17.376 123.863 17.5467 123.362 17.888C122.871 18.2293 122.626 18.6827 122.626 19.248C122.626 19.664 122.748 20.016 122.994 20.304C123.25 20.5813 123.687 20.8427 124.306 21.088C124.924 21.3227 125.799 21.6 126.93 21.92C128.028 22.2187 128.983 22.5707 129.794 22.976C130.615 23.3813 131.25 23.92 131.698 24.592C132.156 25.2533 132.385 26.1173 132.385 27.184C132.385 28.4 132.034 29.3973 131.33 30.176C130.636 30.944 129.719 31.5147 128.578 31.888C127.447 32.2507 126.231 32.432 124.93 32.432C123.362 32.432 122.007 32.208 120.866 31.76C119.724 31.3013 118.764 30.7307 117.986 30.048L119.89 27.872C120.551 28.4053 121.308 28.8427 122.162 29.184C123.015 29.5147 123.938 29.68 124.93 29.68Z" fill="white"/>
<path fill-rule="evenodd" clip-rule="evenodd" d="M391 21.5H152V20.5H391V21.5Z" fill="#C778DD"/>
</svg>
