<svg width="701" height="42" viewBox="0 0 701 42" fill="none" xmlns="http://www.w3.org/2000/svg">
<path d="M15.072 17.52L14.176 24.32H16.544V26.88H13.824L13.168 32H10.16L10.832 26.88H6.784L6.112 32H3.104L3.776 26.88H1.488V24.32H4.112L5.04 17.52H2.672V14.944H5.376L6.032 9.92H9.056L8.352 14.944H12.416L13.088 9.92H16.096L15.408 14.944H17.728V17.52H15.072ZM7.12 24.32H11.168L12.08 17.52H8.016L7.12 24.32Z" fill="#C778DD"/>
<path d="M25.824 24.704C25.8987 25.856 26.144 26.8 26.56 27.536C26.976 28.2613 27.52 28.7947 28.192 29.136C28.8747 29.4773 29.6213 29.648 30.432 29.648C31.264 29.648 32.032 29.52 32.736 29.264C33.44 29.008 34.1493 28.6453 34.864 28.176L36.416 30.32C35.6267 30.96 34.704 31.472 33.648 31.856C32.592 32.24 31.4613 32.432 30.256 32.432C28.5067 32.432 27.024 32.0587 25.808 31.312C24.6027 30.5653 23.6853 29.5253 23.056 28.192C22.4267 26.8587 22.112 25.3173 22.112 23.568C22.112 21.872 22.4213 20.3573 23.04 19.024C23.6587 17.68 24.544 16.6187 25.696 15.84C26.848 15.0507 28.224 14.656 29.824 14.656C31.328 14.656 32.6187 14.9973 33.696 15.68C34.784 16.3627 35.6213 17.3333 36.208 18.592C36.8053 19.84 37.104 21.344 37.104 23.104C37.104 23.392 37.0933 23.68 37.072 23.968C37.0613 24.2453 37.0453 24.4907 37.024 24.704H25.824ZM29.856 17.312C28.736 17.312 27.808 17.712 27.072 18.512C26.3467 19.312 25.9253 20.56 25.808 22.256H33.632C33.6 20.6667 33.2587 19.4453 32.608 18.592C31.968 17.7387 31.0507 17.312 29.856 17.312ZM44.5315 32H40.5635L46.6275 23.088L41.2355 15.104H45.3635L48.8195 21.056L52.2755 15.104H56.2115L50.9315 22.944L57.0115 32H52.8035L48.6595 25.104L44.5315 32ZM69.463 14.656C70.9563 14.656 72.151 15.024 73.047 15.76C73.943 16.4853 74.5937 17.5147 74.999 18.848C75.4043 20.1707 75.607 21.728 75.607 23.52C75.607 25.2373 75.3617 26.768 74.871 28.112C74.3803 29.456 73.6497 30.512 72.679 31.28C71.719 32.048 70.5243 32.432 69.095 32.432C67.3243 32.432 65.895 31.808 64.807 30.56V38.496L61.223 38.896V15.104H64.343L64.567 17.28C65.207 16.4053 65.9483 15.7493 66.791 15.312C67.6443 14.8747 68.535 14.656 69.463 14.656ZM68.471 17.424C67.671 17.424 66.967 17.664 66.359 18.144C65.751 18.624 65.2337 19.1893 64.807 19.84V27.744C65.2123 28.352 65.6923 28.8213 66.247 29.152C66.8123 29.472 67.447 29.632 68.151 29.632C69.3563 29.632 70.2737 29.1467 70.903 28.176C71.5323 27.2053 71.847 25.6587 71.847 23.536C71.847 22.096 71.719 20.928 71.463 20.032C71.2177 19.1253 70.8443 18.464 70.343 18.048C69.8523 17.632 69.2283 17.424 68.471 17.424ZM83.3865 24.704C83.4612 25.856 83.7065 26.8 84.1225 27.536C84.5385 28.2613 85.0825 28.7947 85.7545 29.136C86.4372 29.4773 87.1838 29.648 87.9945 29.648C88.8265 29.648 89.5945 29.52 90.2985 29.264C91.0025 29.008 91.7118 28.6453 92.4265 28.176L93.9785 30.32C93.1892 30.96 92.2665 31.472 91.2105 31.856C90.1545 32.24 89.0238 32.432 87.8185 32.432C86.0692 32.432 84.5865 32.0587 83.3705 31.312C82.1652 30.5653 81.2478 29.5253 80.6185 28.192C79.9892 26.8587 79.6745 25.3173 79.6745 23.568C79.6745 21.872 79.9838 20.3573 80.6025 19.024C81.2212 17.68 82.1065 16.6187 83.2585 15.84C84.4105 15.0507 85.7865 14.656 87.3865 14.656C88.8905 14.656 90.1812 14.9973 91.2585 15.68C92.3465 16.3627 93.1838 17.3333 93.7705 18.592C94.3678 19.84 94.6665 21.344 94.6665 23.104C94.6665 23.392 94.6558 23.68 94.6345 23.968C94.6238 24.2453 94.6078 24.4907 94.5865 24.704H83.3865ZM87.4185 17.312C86.2985 17.312 85.3705 17.712 84.6345 18.512C83.9092 19.312 83.4878 20.56 83.3705 22.256H91.1945C91.1625 20.6667 90.8212 19.4453 90.1705 18.592C89.5305 17.7387 88.6132 17.312 87.4185 17.312ZM99.758 32V29.44H102.238V17.648H99.758V15.104H104.974L105.63 19.024C106.259 17.6053 107.038 16.528 107.966 15.792C108.905 15.0453 110.11 14.672 111.582 14.672C112.083 14.672 112.531 14.7147 112.926 14.8C113.331 14.8747 113.731 14.976 114.126 15.104L113.054 18.176C112.713 18.08 112.393 18.0107 112.094 17.968C111.795 17.9147 111.465 17.888 111.102 17.888C109.875 17.888 108.814 18.3467 107.918 19.264C107.033 20.1813 106.334 21.4827 105.822 23.168V29.44H109.23V32H99.758ZM110.958 21.328V17.168L111.406 15.104H114.126L113.518 21.328H110.958ZM128.018 15.104V29.376H132.61V32H119.378V29.376H124.434V17.728H119.538V15.104H128.018ZM125.522 6.832C126.226 6.832 126.791 7.04533 127.218 7.472C127.655 7.89867 127.874 8.432 127.874 9.072C127.874 9.712 127.655 10.2507 127.218 10.688C126.791 11.1253 126.226 11.344 125.522 11.344C124.839 11.344 124.279 11.1253 123.842 10.688C123.404 10.2507 123.186 9.712 123.186 9.072C123.186 8.432 123.404 7.89867 123.842 7.472C124.279 7.04533 124.839 6.832 125.522 6.832ZM140.949 24.704C141.024 25.856 141.269 26.8 141.685 27.536C142.101 28.2613 142.645 28.7947 143.317 29.136C144 29.4773 144.746 29.648 145.557 29.648C146.389 29.648 147.157 29.52 147.861 29.264C148.565 29.008 149.274 28.6453 149.989 28.176L151.541 30.32C150.752 30.96 149.829 31.472 148.773 31.856C147.717 32.24 146.586 32.432 145.381 32.432C143.632 32.432 142.149 32.0587 140.933 31.312C139.728 30.5653 138.81 29.5253 138.181 28.192C137.552 26.8587 137.237 25.3173 137.237 23.568C137.237 21.872 137.546 20.3573 138.165 19.024C138.784 17.68 139.669 16.6187 140.821 15.84C141.973 15.0507 143.349 14.656 144.949 14.656C146.453 14.656 147.744 14.9973 148.821 15.68C149.909 16.3627 150.746 17.3333 151.333 18.592C151.93 19.84 152.229 21.344 152.229 23.104C152.229 23.392 152.218 23.68 152.197 23.968C152.186 24.2453 152.17 24.4907 152.149 24.704H140.949ZM144.981 17.312C143.861 17.312 142.933 17.712 142.197 18.512C141.472 19.312 141.05 20.56 140.933 22.256H148.757C148.725 20.6667 148.384 19.4453 147.733 18.592C147.093 17.7387 146.176 17.312 144.981 17.312ZM157.161 32V15.104H160.249L160.521 17.296C161.225 16.432 162.057 15.776 163.017 15.328C163.977 14.88 164.963 14.656 165.977 14.656C167.555 14.656 168.734 15.0987 169.513 15.984C170.302 16.8587 170.697 18.0907 170.697 19.68V32H167.113V21.456C167.113 20.4747 167.054 19.6853 166.937 19.088C166.819 18.4907 166.585 18.0587 166.233 17.792C165.891 17.5253 165.379 17.392 164.697 17.392C164.153 17.392 163.635 17.5093 163.145 17.744C162.654 17.9787 162.206 18.288 161.801 18.672C161.395 19.0453 161.043 19.4453 160.745 19.872V32H157.161ZM184.492 29.488C185.281 29.488 186.017 29.3547 186.7 29.088C187.383 28.8107 188.033 28.4533 188.652 28.016L190.316 30.32C189.58 30.9493 188.684 31.4613 187.628 31.856C186.583 32.24 185.5 32.432 184.38 32.432C182.652 32.432 181.175 32.0693 179.948 31.344C178.721 30.608 177.783 29.5787 177.132 28.256C176.481 26.9333 176.156 25.392 176.156 23.632C176.156 21.9147 176.481 20.384 177.132 19.04C177.793 17.6853 178.743 16.6187 179.98 15.84C181.217 15.0507 182.705 14.656 184.444 14.656C185.596 14.656 186.657 14.8267 187.628 15.168C188.599 15.5093 189.489 16.016 190.3 16.688L188.652 18.944C187.991 18.4853 187.313 18.1387 186.62 17.904C185.937 17.6587 185.233 17.536 184.508 17.536C183.175 17.536 182.081 18.0267 181.228 19.008C180.385 19.9893 179.964 21.5307 179.964 23.632C179.964 25.04 180.156 26.176 180.54 27.04C180.935 27.8933 181.473 28.5173 182.156 28.912C182.839 29.296 183.617 29.488 184.492 29.488ZM198.512 24.704C198.586 25.856 198.832 26.8 199.248 27.536C199.664 28.2613 200.208 28.7947 200.88 29.136C201.562 29.4773 202.309 29.648 203.12 29.648C203.952 29.648 204.72 29.52 205.424 29.264C206.128 29.008 206.837 28.6453 207.552 28.176L209.104 30.32C208.314 30.96 207.392 31.472 206.336 31.856C205.28 32.24 204.149 32.432 202.944 32.432C201.194 32.432 199.712 32.0587 198.496 31.312C197.29 30.5653 196.373 29.5253 195.744 28.192C195.114 26.8587 194.799 25.3173 194.799 23.568C194.799 21.872 195.109 20.3573 195.728 19.024C196.346 17.68 197.232 16.6187 198.384 15.84C199.536 15.0507 200.912 14.656 202.512 14.656C204.016 14.656 205.306 14.9973 206.384 15.68C207.472 16.3627 208.309 17.3333 208.896 18.592C209.493 19.84 209.792 21.344 209.792 23.104C209.792 23.392 209.781 23.68 209.76 23.968C209.749 24.2453 209.733 24.4907 209.712 24.704H198.512ZM202.544 17.312C201.424 17.312 200.496 17.712 199.76 18.512C199.034 19.312 198.613 20.56 198.496 22.256H206.32C206.288 20.6667 205.946 19.4453 205.296 18.592C204.656 17.7387 203.738 17.312 202.544 17.312Z" fill="white"/>
<path fill-rule="evenodd" clip-rule="evenodd" d="M701 21.5H228V20.5H701V21.5Z" fill="#C778DD"/>
</svg>
