<svg width="516" height="42" viewBox="0 0 516 42" fill="none" xmlns="http://www.w3.org/2000/svg">
<path d="M15.072 17.52L14.176 24.32H16.544V26.88H13.824L13.168 32H10.16L10.832 26.88H6.784L6.112 32H3.104L3.776 26.88H1.488V24.32H4.112L5.04 17.52H2.672V14.944H5.376L6.032 9.92H9.056L8.352 14.944H12.416L13.088 9.92H16.096L15.408 14.944H17.728V17.52H15.072ZM7.12 24.32H11.168L12.08 17.52H8.016L7.12 24.32Z" fill="#C778DD"/>
<path d="M30.992 29.488C31.7813 29.488 32.5173 29.3547 33.2 29.088C33.8827 28.8107 34.5333 28.4533 35.152 28.016L36.816 30.32C36.08 30.9493 35.184 31.4613 34.128 31.856C33.0827 32.24 32 32.432 30.88 32.432C29.152 32.432 27.6747 32.0693 26.448 31.344C25.2213 30.608 24.2827 29.5787 23.632 28.256C22.9813 26.9333 22.656 25.392 22.656 23.632C22.656 21.9147 22.9813 20.384 23.632 19.04C24.2933 17.6853 25.2427 16.6187 26.48 15.84C27.7173 15.0507 29.2053 14.656 30.944 14.656C32.096 14.656 33.1573 14.8267 34.128 15.168C35.0987 15.5093 35.9893 16.016 36.8 16.688L35.152 18.944C34.4907 18.4853 33.8133 18.1387 33.12 17.904C32.4373 17.6587 31.7333 17.536 31.008 17.536C29.6747 17.536 28.5813 18.0267 27.728 19.008C26.8853 19.9893 26.464 21.5307 26.464 23.632C26.464 25.04 26.656 26.176 27.04 27.04C27.4347 27.8933 27.9733 28.5173 28.656 28.912C29.3387 29.296 30.1173 29.488 30.992 29.488ZM48.8035 14.656C50.4568 14.656 51.8488 15.024 52.9795 15.76C54.1102 16.496 54.9635 17.5253 55.5395 18.848C56.1262 20.1707 56.4195 21.728 56.4195 23.52C56.4195 25.3013 56.1208 26.864 55.5235 28.208C54.9368 29.5413 54.0728 30.5813 52.9315 31.328C51.8008 32.064 50.4195 32.432 48.7875 32.432C47.1555 32.432 45.7688 32.0747 44.6275 31.36C43.4968 30.6347 42.6328 29.6053 42.0355 28.272C41.4488 26.9387 41.1555 25.3653 41.1555 23.552C41.1555 21.792 41.4488 20.2453 42.0355 18.912C42.6328 17.5787 43.5022 16.5387 44.6435 15.792C45.7848 15.0347 47.1715 14.656 48.8035 14.656ZM48.8035 17.44C47.5128 17.44 46.5422 17.936 45.8915 18.928C45.2408 19.9093 44.9155 21.4507 44.9155 23.552C44.9155 25.6427 45.2355 27.184 45.8755 28.176C46.5262 29.168 47.4968 29.664 48.7875 29.664C50.0782 29.664 51.0435 29.168 51.6835 28.176C52.3342 27.184 52.6595 25.632 52.6595 23.52C52.6595 21.44 52.3395 19.9093 51.6995 18.928C51.0595 17.936 50.0942 17.44 48.8035 17.44ZM72.871 14.656C73.511 14.656 74.087 14.7947 74.599 15.072C75.111 15.3493 75.511 15.8347 75.799 16.528C76.0977 17.2213 76.247 18.192 76.247 19.44V32H73.063V19.936C73.063 19.0507 72.999 18.416 72.871 18.032C72.7537 17.648 72.439 17.456 71.927 17.456C71.5217 17.456 71.111 17.584 70.695 17.84C70.279 18.0853 69.8577 18.512 69.431 19.12V32H66.535V19.936C66.535 19.0507 66.471 18.416 66.343 18.032C66.2257 17.648 65.911 17.456 65.399 17.456C64.983 17.456 64.567 17.584 64.151 17.84C63.7457 18.0853 63.3297 18.512 62.903 19.12V32H59.703V15.104H62.407L62.647 16.928C63.127 16.256 63.6497 15.712 64.215 15.296C64.7803 14.8693 65.463 14.656 66.263 14.656C66.903 14.656 67.4843 14.816 68.007 15.136C68.5297 15.456 68.9137 16.016 69.159 16.816C69.6283 16.176 70.1617 15.6587 70.759 15.264C71.3563 14.8587 72.0603 14.656 72.871 14.656ZM88.6505 14.656C90.1438 14.656 91.3385 15.024 92.2345 15.76C93.1305 16.4853 93.7812 17.5147 94.1865 18.848C94.5918 20.1707 94.7945 21.728 94.7945 23.52C94.7945 25.2373 94.5492 26.768 94.0585 28.112C93.5678 29.456 92.8372 30.512 91.8665 31.28C90.9065 32.048 89.7118 32.432 88.2825 32.432C86.5118 32.432 85.0825 31.808 83.9945 30.56V38.496L80.4105 38.896V15.104H83.5305L83.7545 17.28C84.3945 16.4053 85.1358 15.7493 85.9785 15.312C86.8318 14.8747 87.7225 14.656 88.6505 14.656ZM87.6585 17.424C86.8585 17.424 86.1545 17.664 85.5465 18.144C84.9385 18.624 84.4212 19.1893 83.9945 19.84V27.744C84.3998 28.352 84.8798 28.8213 85.4345 29.152C85.9998 29.472 86.6345 29.632 87.3385 29.632C88.5438 29.632 89.4612 29.1467 90.0905 28.176C90.7198 27.2053 91.0345 25.6587 91.0345 23.536C91.0345 22.096 90.9065 20.928 90.6505 20.032C90.4052 19.1253 90.0318 18.464 89.5305 18.048C89.0398 17.632 88.4158 17.424 87.6585 17.424ZM102.574 24.704C102.649 25.856 102.894 26.8 103.31 27.536C103.726 28.2613 104.27 28.7947 104.942 29.136C105.625 29.4773 106.371 29.648 107.182 29.648C108.014 29.648 108.782 29.52 109.486 29.264C110.19 29.008 110.899 28.6453 111.614 28.176L113.166 30.32C112.377 30.96 111.454 31.472 110.398 31.856C109.342 32.24 108.211 32.432 107.006 32.432C105.257 32.432 103.774 32.0587 102.558 31.312C101.353 30.5653 100.435 29.5253 99.806 28.192C99.1767 26.8587 98.862 25.3173 98.862 23.568C98.862 21.872 99.1713 20.3573 99.79 19.024C100.409 17.68 101.294 16.6187 102.446 15.84C103.598 15.0507 104.974 14.656 106.574 14.656C108.078 14.656 109.369 14.9973 110.446 15.68C111.534 16.3627 112.371 17.3333 112.958 18.592C113.555 19.84 113.854 21.344 113.854 23.104C113.854 23.392 113.843 23.68 113.822 23.968C113.811 24.2453 113.795 24.4907 113.774 24.704H102.574ZM106.606 17.312C105.486 17.312 104.558 17.712 103.822 18.512C103.097 19.312 102.675 20.56 102.558 22.256H110.382C110.35 20.6667 110.009 19.4453 109.358 18.592C108.718 17.7387 107.801 17.312 106.606 17.312ZM132.898 31.104C132.279 31.4987 131.538 31.8187 130.674 32.064C129.81 32.3093 128.908 32.432 127.97 32.432C126.007 32.432 124.514 31.9253 123.49 30.912C122.476 29.888 121.97 28.544 121.97 26.88V17.712H118.21V15.104H121.97V11.328L125.554 10.896V15.104H131.25L130.85 17.712H125.554V26.848C125.554 27.7547 125.778 28.432 126.226 28.88C126.684 29.3173 127.431 29.536 128.466 29.536C129.084 29.536 129.655 29.4613 130.178 29.312C130.7 29.1627 131.175 28.9707 131.602 28.736L132.898 31.104ZM147.205 15.104V29.376H151.797V32H138.565V29.376H143.621V17.728H138.725V15.104H147.205ZM144.709 6.832C145.413 6.832 145.978 7.04533 146.405 7.472C146.842 7.89867 147.061 8.432 147.061 9.072C147.061 9.712 146.842 10.2507 146.405 10.688C145.978 11.1253 145.413 11.344 144.709 11.344C144.026 11.344 143.466 11.1253 143.029 10.688C142.592 10.2507 142.373 9.712 142.373 9.072C142.373 8.432 142.592 7.89867 143.029 7.472C143.466 7.04533 144.026 6.832 144.709 6.832ZM171.273 31.104C170.654 31.4987 169.913 31.8187 169.049 32.064C168.185 32.3093 167.283 32.432 166.345 32.432C164.382 32.432 162.889 31.9253 161.865 30.912C160.851 29.888 160.345 28.544 160.345 26.88V17.712H156.585V15.104H160.345V11.328L163.929 10.896V15.104H169.625L169.225 17.712H163.929V26.848C163.929 27.7547 164.153 28.432 164.601 28.88C165.059 29.3173 165.806 29.536 166.841 29.536C167.459 29.536 168.03 29.4613 168.553 29.312C169.075 29.1627 169.55 28.9707 169.977 28.736L171.273 31.104ZM185.58 15.104V29.376H190.172V32H176.94V29.376H181.996V17.728H177.1V15.104H185.58ZM183.084 6.832C183.788 6.832 184.353 7.04533 184.78 7.472C185.217 7.89867 185.436 8.432 185.436 9.072C185.436 9.712 185.217 10.2507 184.78 10.688C184.353 11.1253 183.788 11.344 183.084 11.344C182.401 11.344 181.841 11.1253 181.404 10.688C180.967 10.2507 180.748 9.712 180.748 9.072C180.748 8.432 180.967 7.89867 181.404 7.472C181.841 7.04533 182.401 6.832 183.084 6.832ZM202.304 14.656C203.957 14.656 205.349 15.024 206.48 15.76C207.61 16.496 208.464 17.5253 209.04 18.848C209.626 20.1707 209.92 21.728 209.92 23.52C209.92 25.3013 209.621 26.864 209.024 28.208C208.437 29.5413 207.573 30.5813 206.432 31.328C205.301 32.064 203.92 32.432 202.288 32.432C200.656 32.432 199.269 32.0747 198.128 31.36C196.997 30.6347 196.133 29.6053 195.536 28.272C194.949 26.9387 194.656 25.3653 194.656 23.552C194.656 21.792 194.949 20.2453 195.536 18.912C196.133 17.5787 197.002 16.5387 198.144 15.792C199.285 15.0347 200.672 14.656 202.304 14.656ZM202.304 17.44C201.013 17.44 200.042 17.936 199.392 18.928C198.741 19.9093 198.416 21.4507 198.416 23.552C198.416 25.6427 198.736 27.184 199.376 28.176C200.026 29.168 200.997 29.664 202.288 29.664C203.578 29.664 204.544 29.168 205.184 28.176C205.834 27.184 206.16 25.632 206.16 23.52C206.16 21.44 205.84 19.9093 205.2 18.928C204.56 17.936 203.594 17.44 202.304 17.44ZM214.723 32V15.104H217.811L218.083 17.296C218.787 16.432 219.619 15.776 220.579 15.328C221.539 14.88 222.526 14.656 223.539 14.656C225.118 14.656 226.296 15.0987 227.075 15.984C227.864 16.8587 228.259 18.0907 228.259 19.68V32H224.675V21.456C224.675 20.4747 224.616 19.6853 224.499 19.088C224.382 18.4907 224.147 18.0587 223.795 17.792C223.454 17.5253 222.942 17.392 222.259 17.392C221.715 17.392 221.198 17.5093 220.707 17.744C220.216 17.9787 219.768 18.288 219.363 18.672C218.958 19.0453 218.606 19.4453 218.307 19.872V32H214.723Z" fill="white"/>
<path fill-rule="evenodd" clip-rule="evenodd" d="M516 21.5H248V20.5H516V21.5Z" fill="#C778DD"/>
</svg>
