<svg width="942" height="173" viewBox="0 0 942 173" fill="none" xmlns="http://www.w3.org/2000/svg">
<rect x="0.5" y="14.5" width="941" height="94" fill="#282C33"/>
<rect x="0.5" y="14.5" width="941" height="94" stroke="#ABB2BF"/>
<path d="M40.604 63.676V70H37.796V63.7L32.276 53.44H35.336L39.26 61.288L43.208 53.44H46.124L40.604 63.676ZM53.6026 56.992C54.8426 56.992 55.8866 57.268 56.7346 57.82C57.5826 58.372 58.2226 59.144 58.6546 60.136C59.0946 61.128 59.3146 62.296 59.3146 63.64C59.3146 64.976 59.0906 66.148 58.6426 67.156C58.2026 68.156 57.5546 68.936 56.6986 69.496C55.8506 70.048 54.8146 70.324 53.5906 70.324C52.3666 70.324 51.3266 70.056 50.4706 69.52C49.6226 68.976 48.9746 68.204 48.5266 67.204C48.0866 66.204 47.8666 65.024 47.8666 63.664C47.8666 62.344 48.0866 61.184 48.5266 60.184C48.9746 59.184 49.6266 58.404 50.4826 57.844C51.3386 57.276 52.3786 56.992 53.6026 56.992ZM53.6026 59.08C52.6346 59.08 51.9066 59.452 51.4186 60.196C50.9306 60.932 50.6866 62.088 50.6866 63.664C50.6866 65.232 50.9266 66.388 51.4066 67.132C51.8946 67.876 52.6226 68.248 53.5906 68.248C54.5586 68.248 55.2826 67.876 55.7626 67.132C56.2506 66.388 56.4946 65.224 56.4946 63.64C56.4946 62.08 56.2546 60.932 55.7746 60.196C55.2946 59.452 54.5706 59.08 53.6026 59.08ZM65.6053 57.328V66.184C65.6053 66.936 65.7533 67.472 66.0493 67.792C66.3533 68.112 66.8093 68.272 67.4173 68.272C67.9933 68.272 68.5493 68.1 69.0853 67.756C69.6213 67.412 70.0453 66.992 70.3573 66.496V57.328H73.0453V70H70.7293L70.5613 68.38C70.0893 69.012 69.4933 69.496 68.7733 69.832C68.0533 70.16 67.3173 70.324 66.5653 70.324C65.3413 70.324 64.4253 69.988 63.8173 69.316C63.2173 68.636 62.9173 67.704 62.9173 66.52V57.328H65.6053ZM77.4279 70V68.08H79.2879V59.236H77.4279V57.328H81.3399L81.8319 60.268C82.3039 59.204 82.8879 58.396 83.5839 57.844C84.2879 57.284 85.1919 57.004 86.2959 57.004C86.6719 57.004 87.0079 57.036 87.3039 57.1C87.6079 57.156 87.9079 57.232 88.2039 57.328L87.3999 59.632C87.1439 59.56 86.9039 59.508 86.6799 59.476C86.4559 59.436 86.2079 59.416 85.9359 59.416C85.0159 59.416 84.2199 59.76 83.5479 60.448C82.8839 61.136 82.3599 62.112 81.9759 63.376V68.08H84.5319V70H77.4279ZM85.8279 61.996V58.876L86.1639 57.328H88.2039L87.7479 61.996H85.8279ZM114.825 56.992C115.305 56.992 115.737 57.096 116.121 57.304C116.505 57.512 116.805 57.876 117.021 58.396C117.245 58.916 117.357 59.644 117.357 60.58V70H114.969V60.952C114.969 60.288 114.921 59.812 114.825 59.524C114.737 59.236 114.501 59.092 114.117 59.092C113.813 59.092 113.505 59.188 113.193 59.38C112.881 59.564 112.565 59.884 112.245 60.34V70H110.073V60.952C110.073 60.288 110.025 59.812 109.929 59.524C109.841 59.236 109.605 59.092 109.221 59.092C108.909 59.092 108.597 59.188 108.285 59.38C107.981 59.564 107.669 59.884 107.349 60.34V70H104.949V57.328H106.977L107.157 58.696C107.517 58.192 107.909 57.784 108.333 57.472C108.757 57.152 109.269 56.992 109.869 56.992C110.349 56.992 110.785 57.112 111.177 57.352C111.569 57.592 111.857 58.012 112.041 58.612C112.393 58.132 112.793 57.744 113.241 57.448C113.689 57.144 114.217 56.992 114.825 56.992ZM127.404 57.328V68.032H130.848V70H120.924V68.032H124.716V59.296H121.044V57.328H127.404ZM125.532 51.124C126.06 51.124 126.484 51.284 126.804 51.604C127.132 51.924 127.296 52.324 127.296 52.804C127.296 53.284 127.132 53.688 126.804 54.016C126.484 54.344 126.06 54.508 125.532 54.508C125.02 54.508 124.6 54.344 124.272 54.016C123.944 53.688 123.78 53.284 123.78 52.804C123.78 52.324 123.944 51.924 124.272 51.604C124.6 51.284 125.02 51.124 125.532 51.124ZM134.87 70V57.328H137.186L137.39 58.972C137.918 58.324 138.542 57.832 139.262 57.496C139.982 57.16 140.722 56.992 141.482 56.992C142.666 56.992 143.55 57.324 144.134 57.988C144.726 58.644 145.022 59.568 145.022 60.76V70H142.334V62.092C142.334 61.356 142.29 60.764 142.202 60.316C142.114 59.868 141.938 59.544 141.674 59.344C141.418 59.144 141.034 59.044 140.522 59.044C140.114 59.044 139.726 59.132 139.358 59.308C138.99 59.484 138.654 59.716 138.35 60.004C138.046 60.284 137.782 60.584 137.558 60.904V70H134.87ZM156.701 51.94L159.389 52.24V70H157.025L156.833 68.44C156.401 69.04 155.885 69.504 155.285 69.832C154.685 70.16 154.013 70.324 153.269 70.324C152.181 70.324 151.285 70.048 150.581 69.496C149.877 68.936 149.353 68.156 149.009 67.156C148.673 66.148 148.505 64.984 148.505 63.664C148.505 62.376 148.705 61.232 149.105 60.232C149.505 59.224 150.077 58.432 150.821 57.856C151.565 57.28 152.461 56.992 153.509 56.992C154.173 56.992 154.769 57.112 155.297 57.352C155.825 57.584 156.293 57.924 156.701 58.372V51.94ZM154.217 59.056C153.313 59.056 152.609 59.432 152.105 60.184C151.601 60.928 151.349 62.088 151.349 63.664C151.349 64.744 151.453 65.624 151.661 66.304C151.869 66.976 152.169 67.472 152.561 67.792C152.953 68.104 153.425 68.26 153.977 68.26C154.585 68.26 155.113 68.084 155.561 67.732C156.009 67.38 156.389 66.956 156.701 66.46V60.46C156.389 60.012 156.025 59.668 155.609 59.428C155.193 59.18 154.729 59.056 154.217 59.056ZM188.71 55.72L189.43 57.952C188.926 58.12 188.37 58.232 187.762 58.288C187.162 58.344 186.49 58.372 185.746 58.372C186.506 58.708 187.078 59.14 187.462 59.668C187.846 60.188 188.038 60.828 188.038 61.588C188.038 62.412 187.838 63.148 187.438 63.796C187.038 64.444 186.466 64.952 185.722 65.32C184.978 65.688 184.086 65.872 183.046 65.872C182.678 65.872 182.358 65.856 182.086 65.824C181.822 65.792 181.562 65.74 181.306 65.668C181.146 65.78 181.01 65.932 180.898 66.124C180.794 66.308 180.742 66.504 180.742 66.712C180.742 66.968 180.846 67.192 181.054 67.384C181.27 67.568 181.694 67.66 182.326 67.66H184.534C185.438 67.66 186.234 67.816 186.922 68.128C187.618 68.432 188.162 68.852 188.554 69.388C188.954 69.916 189.154 70.516 189.154 71.188C189.154 72.452 188.61 73.432 187.522 74.128C186.434 74.824 184.866 75.172 182.818 75.172C181.37 75.172 180.234 75.024 179.41 74.728C178.586 74.432 178.006 73.992 177.67 73.408C177.334 72.824 177.166 72.108 177.166 71.26H179.578C179.578 71.7 179.662 72.064 179.83 72.352C180.006 72.64 180.33 72.856 180.802 73C181.274 73.144 181.954 73.216 182.842 73.216C183.73 73.216 184.434 73.14 184.954 72.988C185.482 72.844 185.862 72.632 186.094 72.352C186.334 72.08 186.454 71.752 186.454 71.368C186.454 70.856 186.23 70.46 185.782 70.18C185.334 69.9 184.734 69.76 183.982 69.76H181.81C180.61 69.76 179.73 69.516 179.17 69.028C178.618 68.54 178.342 67.972 178.342 67.324C178.342 66.892 178.462 66.476 178.702 66.076C178.95 65.676 179.302 65.328 179.758 65.032C178.998 64.632 178.442 64.148 178.09 63.58C177.746 63.004 177.574 62.308 177.574 61.492C177.574 60.596 177.798 59.812 178.246 59.14C178.694 58.468 179.314 57.944 180.106 57.568C180.906 57.192 181.826 57.004 182.866 57.004C183.882 57.004 184.73 56.952 185.41 56.848C186.09 56.736 186.682 56.58 187.186 56.38C187.698 56.18 188.206 55.96 188.71 55.72ZM182.89 58.852C182.034 58.852 181.39 59.096 180.958 59.584C180.526 60.064 180.31 60.692 180.31 61.468C180.31 62.268 180.53 62.912 180.97 63.4C181.418 63.88 182.07 64.12 182.926 64.12C183.718 64.12 184.322 63.888 184.738 63.424C185.162 62.96 185.374 62.3 185.374 61.444C185.374 60.58 185.166 59.932 184.75 59.5C184.334 59.068 183.714 58.852 182.89 58.852ZM192.553 70V68.08H194.413V59.236H192.553V57.328H196.465L196.957 60.268C197.429 59.204 198.013 58.396 198.709 57.844C199.413 57.284 200.317 57.004 201.421 57.004C201.797 57.004 202.133 57.036 202.429 57.1C202.733 57.156 203.033 57.232 203.329 57.328L202.525 59.632C202.269 59.56 202.029 59.508 201.805 59.476C201.581 59.436 201.333 59.416 201.061 59.416C200.141 59.416 199.345 59.76 198.673 60.448C198.009 61.136 197.485 62.112 197.101 63.376V68.08H199.657V70H192.553ZM200.953 61.996V58.876L201.289 57.328H203.329L202.873 61.996H200.953ZM211.9 56.992C213.14 56.992 214.184 57.268 215.032 57.82C215.88 58.372 216.52 59.144 216.952 60.136C217.392 61.128 217.612 62.296 217.612 63.64C217.612 64.976 217.388 66.148 216.94 67.156C216.5 68.156 215.852 68.936 214.996 69.496C214.148 70.048 213.112 70.324 211.888 70.324C210.664 70.324 209.624 70.056 208.768 69.52C207.92 68.976 207.272 68.204 206.824 67.204C206.384 66.204 206.164 65.024 206.164 63.664C206.164 62.344 206.384 61.184 206.824 60.184C207.272 59.184 207.924 58.404 208.78 57.844C209.636 57.276 210.676 56.992 211.9 56.992ZM211.9 59.08C210.932 59.08 210.204 59.452 209.716 60.196C209.228 60.932 208.984 62.088 208.984 63.664C208.984 65.232 209.224 66.388 209.704 67.132C210.192 67.876 210.92 68.248 211.888 68.248C212.856 68.248 213.58 67.876 214.06 67.132C214.548 66.388 214.792 65.224 214.792 63.64C214.792 62.08 214.552 60.932 214.072 60.196C213.592 59.452 212.868 59.08 211.9 59.08ZM231.126 70H227.766L226.338 61L224.802 70H221.514L219.366 57.328H221.958L223.278 68.332L225.042 58.936H227.73L229.374 68.332L230.694 57.328H233.19L231.126 70ZM240.213 68.26C241.053 68.26 241.721 68.112 242.217 67.816C242.713 67.512 242.961 67.096 242.961 66.568C242.961 66.224 242.889 65.932 242.745 65.692C242.601 65.444 242.313 65.22 241.881 65.02C241.449 64.812 240.793 64.596 239.913 64.372C239.081 64.156 238.349 63.9 237.717 63.604C237.093 63.308 236.609 62.924 236.265 62.452C235.921 61.98 235.749 61.372 235.749 60.628C235.749 59.9 235.953 59.264 236.361 58.72C236.769 58.176 237.353 57.752 238.113 57.448C238.881 57.144 239.781 56.992 240.813 56.992C241.877 56.992 242.805 57.132 243.597 57.412C244.389 57.692 245.065 58.04 245.625 58.456L244.497 60.148C244.001 59.82 243.457 59.552 242.865 59.344C242.281 59.136 241.621 59.032 240.885 59.032C240.029 59.032 239.413 59.16 239.037 59.416C238.669 59.672 238.485 60.012 238.485 60.436C238.485 60.748 238.577 61.012 238.761 61.228C238.953 61.436 239.281 61.632 239.745 61.816C240.209 61.992 240.865 62.2 241.713 62.44C242.537 62.664 243.253 62.928 243.861 63.232C244.477 63.536 244.953 63.94 245.289 64.444C245.633 64.94 245.805 65.588 245.805 66.388C245.805 67.3 245.541 68.048 245.013 68.632C244.493 69.208 243.805 69.636 242.949 69.916C242.101 70.188 241.189 70.324 240.213 70.324C239.037 70.324 238.021 70.156 237.165 69.82C236.309 69.476 235.589 69.048 235.005 68.536L236.433 66.904C236.929 67.304 237.497 67.632 238.137 67.888C238.777 68.136 239.469 68.26 240.213 68.26ZM274.298 70H270.938L269.51 61L267.974 70H264.686L262.538 57.328H265.13L266.45 68.332L268.214 58.936H270.902L272.546 68.332L273.866 57.328H276.362L274.298 70ZM285.701 57.328V68.032H289.145V70H279.221V68.032H283.013V59.296H279.341V57.328H285.701ZM283.829 51.124C284.357 51.124 284.781 51.284 285.101 51.604C285.429 51.924 285.593 52.324 285.593 52.804C285.593 53.284 285.429 53.688 285.101 54.016C284.781 54.344 284.357 54.508 283.829 54.508C283.317 54.508 282.897 54.344 282.569 54.016C282.241 53.688 282.077 53.284 282.077 52.804C282.077 52.324 282.241 51.924 282.569 51.604C282.897 51.284 283.317 51.124 283.829 51.124ZM303.751 69.328C303.287 69.624 302.731 69.864 302.083 70.048C301.435 70.232 300.759 70.324 300.055 70.324C298.583 70.324 297.463 69.944 296.695 69.184C295.935 68.416 295.555 67.408 295.555 66.16V59.284H292.735V57.328H295.555V54.496L298.243 54.172V57.328H302.515L302.215 59.284H298.243V66.136C298.243 66.816 298.411 67.324 298.747 67.66C299.091 67.988 299.651 68.152 300.427 68.152C300.891 68.152 301.319 68.096 301.711 67.984C302.103 67.872 302.459 67.728 302.779 67.552L303.751 69.328ZM310.246 51.976V58.876C310.758 58.252 311.358 57.784 312.046 57.472C312.734 57.152 313.442 56.992 314.17 56.992C315.362 56.992 316.25 57.324 316.834 57.988C317.418 58.644 317.71 59.568 317.71 60.76V70H315.022V61.18C315.022 60.42 314.878 59.876 314.59 59.548C314.302 59.212 313.838 59.044 313.198 59.044C312.798 59.044 312.414 59.136 312.046 59.32C311.686 59.496 311.35 59.728 311.038 60.016C310.734 60.304 310.47 60.612 310.246 60.94V70H307.558V52.264L310.246 51.976ZM347.499 57.328L342.375 62.992L348.039 70H344.751L339.303 63.064L344.367 57.328H347.499ZM339.111 51.94V70H336.423V52.24L339.111 51.94ZM350.73 70V57.328H353.046L353.25 58.972C353.778 58.324 354.402 57.832 355.122 57.496C355.842 57.16 356.582 56.992 357.342 56.992C358.526 56.992 359.41 57.324 359.994 57.988C360.586 58.644 360.882 59.568 360.882 60.76V70H358.194V62.092C358.194 61.356 358.15 60.764 358.062 60.316C357.974 59.868 357.798 59.544 357.534 59.344C357.278 59.144 356.894 59.044 356.382 59.044C355.974 59.044 355.586 59.132 355.218 59.308C354.85 59.484 354.514 59.716 354.21 60.004C353.906 60.284 353.642 60.584 353.418 60.904V70H350.73ZM370.196 56.992C371.436 56.992 372.48 57.268 373.328 57.82C374.176 58.372 374.816 59.144 375.248 60.136C375.688 61.128 375.908 62.296 375.908 63.64C375.908 64.976 375.684 66.148 375.236 67.156C374.796 68.156 374.148 68.936 373.292 69.496C372.444 70.048 371.408 70.324 370.184 70.324C368.96 70.324 367.92 70.056 367.064 69.52C366.216 68.976 365.568 68.204 365.12 67.204C364.68 66.204 364.46 65.024 364.46 63.664C364.46 62.344 364.68 61.184 365.12 60.184C365.568 59.184 366.22 58.404 367.076 57.844C367.932 57.276 368.972 56.992 370.196 56.992ZM370.196 59.08C369.228 59.08 368.5 59.452 368.012 60.196C367.524 60.932 367.28 62.088 367.28 63.664C367.28 65.232 367.52 66.388 368 67.132C368.488 67.876 369.216 68.248 370.184 68.248C371.152 68.248 371.876 67.876 372.356 67.132C372.844 66.388 373.088 65.224 373.088 63.64C373.088 62.08 372.848 60.932 372.368 60.196C371.888 59.452 371.164 59.08 370.196 59.08ZM389.423 70H386.063L384.635 61L383.099 70H379.811L377.663 57.328H380.255L381.575 68.332L383.339 58.936H386.027L387.671 68.332L388.991 57.328H391.487L389.423 70ZM399.47 52.24V66.544C399.47 67.128 399.646 67.544 399.998 67.792C400.358 68.032 400.822 68.152 401.39 68.152C401.758 68.152 402.106 68.112 402.434 68.032C402.762 67.952 403.082 67.852 403.394 67.732L404.078 69.604C403.702 69.796 403.238 69.964 402.686 70.108C402.142 70.252 401.518 70.324 400.814 70.324C399.542 70.324 398.55 69.968 397.838 69.256C397.134 68.536 396.782 67.552 396.782 66.304V54.22H392.954V52.24H399.47ZM410.524 64.528C410.58 65.392 410.764 66.1 411.076 66.652C411.388 67.196 411.796 67.596 412.3 67.852C412.812 68.108 413.372 68.236 413.98 68.236C414.604 68.236 415.18 68.14 415.708 67.948C416.236 67.756 416.768 67.484 417.304 67.132L418.468 68.74C417.876 69.22 417.184 69.604 416.392 69.892C415.6 70.18 414.752 70.324 413.848 70.324C412.536 70.324 411.424 70.044 410.512 69.484C409.608 68.924 408.92 68.144 408.448 67.144C407.976 66.144 407.74 64.988 407.74 63.676C407.74 62.404 407.972 61.268 408.436 60.268C408.9 59.26 409.564 58.464 410.428 57.88C411.292 57.288 412.324 56.992 413.524 56.992C414.652 56.992 415.62 57.248 416.428 57.76C417.244 58.272 417.872 59 418.312 59.944C418.76 60.88 418.984 62.008 418.984 63.328C418.984 63.544 418.976 63.76 418.96 63.976C418.952 64.184 418.94 64.368 418.924 64.528H410.524ZM413.548 58.984C412.708 58.984 412.012 59.284 411.46 59.884C410.916 60.484 410.6 61.42 410.512 62.692H416.38C416.356 61.5 416.1 60.584 415.612 59.944C415.132 59.304 414.444 58.984 413.548 58.984ZM430.123 51.94L432.811 52.24V70H430.447L430.255 68.44C429.823 69.04 429.307 69.504 428.707 69.832C428.107 70.16 427.435 70.324 426.691 70.324C425.603 70.324 424.707 70.048 424.003 69.496C423.299 68.936 422.775 68.156 422.431 67.156C422.095 66.148 421.927 64.984 421.927 63.664C421.927 62.376 422.127 61.232 422.527 60.232C422.927 59.224 423.499 58.432 424.243 57.856C424.987 57.28 425.883 56.992 426.931 56.992C427.595 56.992 428.191 57.112 428.719 57.352C429.247 57.584 429.715 57.924 430.123 58.372V51.94ZM427.639 59.056C426.735 59.056 426.031 59.432 425.527 60.184C425.023 60.928 424.771 62.088 424.771 63.664C424.771 64.744 424.875 65.624 425.083 66.304C425.291 66.976 425.591 67.472 425.983 67.792C426.375 68.104 426.847 68.26 427.399 68.26C428.007 68.26 428.535 68.084 428.983 67.732C429.431 67.38 429.811 66.956 430.123 66.46V60.46C429.811 60.012 429.447 59.668 429.031 59.428C428.615 59.18 428.151 59.056 427.639 59.056ZM447.742 55.72L448.462 57.952C447.958 58.12 447.402 58.232 446.794 58.288C446.194 58.344 445.522 58.372 444.778 58.372C445.538 58.708 446.11 59.14 446.494 59.668C446.878 60.188 447.07 60.828 447.07 61.588C447.07 62.412 446.87 63.148 446.47 63.796C446.07 64.444 445.498 64.952 444.754 65.32C444.01 65.688 443.118 65.872 442.078 65.872C441.71 65.872 441.39 65.856 441.118 65.824C440.854 65.792 440.594 65.74 440.338 65.668C440.178 65.78 440.042 65.932 439.93 66.124C439.826 66.308 439.774 66.504 439.774 66.712C439.774 66.968 439.878 67.192 440.086 67.384C440.302 67.568 440.726 67.66 441.358 67.66H443.566C444.47 67.66 445.266 67.816 445.954 68.128C446.65 68.432 447.194 68.852 447.586 69.388C447.986 69.916 448.186 70.516 448.186 71.188C448.186 72.452 447.642 73.432 446.554 74.128C445.466 74.824 443.898 75.172 441.85 75.172C440.402 75.172 439.266 75.024 438.442 74.728C437.618 74.432 437.038 73.992 436.701 73.408C436.366 72.824 436.198 72.108 436.198 71.26H438.61C438.61 71.7 438.694 72.064 438.862 72.352C439.038 72.64 439.362 72.856 439.834 73C440.306 73.144 440.986 73.216 441.874 73.216C442.762 73.216 443.466 73.14 443.986 72.988C444.514 72.844 444.894 72.632 445.126 72.352C445.366 72.08 445.486 71.752 445.486 71.368C445.486 70.856 445.262 70.46 444.814 70.18C444.366 69.9 443.766 69.76 443.014 69.76H440.842C439.642 69.76 438.762 69.516 438.202 69.028C437.65 68.54 437.374 67.972 437.374 67.324C437.374 66.892 437.494 66.476 437.734 66.076C437.982 65.676 438.334 65.328 438.79 65.032C438.03 64.632 437.474 64.148 437.122 63.58C436.778 63.004 436.606 62.308 436.606 61.492C436.606 60.596 436.83 59.812 437.278 59.14C437.726 58.468 438.346 57.944 439.138 57.568C439.938 57.192 440.858 57.004 441.898 57.004C442.914 57.004 443.762 56.952 444.442 56.848C445.122 56.736 445.714 56.58 446.218 56.38C446.73 56.18 447.238 55.96 447.742 55.72ZM441.922 58.852C441.066 58.852 440.422 59.096 439.99 59.584C439.558 60.064 439.342 60.692 439.342 61.468C439.342 62.268 439.562 62.912 440.002 63.4C440.45 63.88 441.102 64.12 441.958 64.12C442.75 64.12 443.354 63.888 443.77 63.424C444.194 62.96 444.406 62.3 444.406 61.444C444.406 60.58 444.198 59.932 443.782 59.5C443.366 59.068 442.746 58.852 441.922 58.852ZM453.696 64.528C453.752 65.392 453.936 66.1 454.248 66.652C454.56 67.196 454.968 67.596 455.472 67.852C455.984 68.108 456.544 68.236 457.152 68.236C457.776 68.236 458.352 68.14 458.88 67.948C459.408 67.756 459.94 67.484 460.476 67.132L461.64 68.74C461.048 69.22 460.356 69.604 459.564 69.892C458.772 70.18 457.924 70.324 457.02 70.324C455.708 70.324 454.596 70.044 453.684 69.484C452.78 68.924 452.092 68.144 451.62 67.144C451.148 66.144 450.912 64.988 450.912 63.676C450.912 62.404 451.144 61.268 451.608 60.268C452.072 59.26 452.736 58.464 453.6 57.88C454.464 57.288 455.496 56.992 456.696 56.992C457.824 56.992 458.792 57.248 459.6 57.76C460.416 58.272 461.044 59 461.484 59.944C461.932 60.88 462.156 62.008 462.156 63.328C462.156 63.544 462.148 63.76 462.132 63.976C462.124 64.184 462.112 64.368 462.096 64.528H453.696ZM456.72 58.984C455.88 58.984 455.184 59.284 454.632 59.884C454.088 60.484 453.772 61.42 453.684 62.692H459.552C459.528 61.5 459.272 60.584 458.784 59.944C458.304 59.304 457.616 58.984 456.72 58.984ZM470.919 65.68C471.551 65.68 472.075 65.892 472.491 66.316C472.907 66.732 473.115 67.244 473.115 67.852C473.115 68.212 473.059 68.576 472.947 68.944C472.843 69.304 472.671 69.748 472.431 70.276L470.571 74.524H468.483L469.659 69.652C469.371 69.452 469.147 69.196 468.987 68.884C468.827 68.564 468.747 68.216 468.747 67.84C468.747 67.24 468.955 66.732 469.371 66.316C469.787 65.892 470.303 65.68 470.919 65.68ZM497.324 58.84C497.764 58.264 498.276 57.812 498.86 57.484C499.452 57.156 500.1 56.992 500.804 56.992C501.916 56.992 502.816 57.268 503.504 57.82C504.2 58.364 504.708 59.136 505.028 60.136C505.356 61.128 505.52 62.296 505.52 63.64C505.52 64.928 505.328 66.076 504.944 67.084C504.56 68.092 503.992 68.884 503.24 69.46C502.496 70.036 501.576 70.324 500.48 70.324C499.064 70.324 497.952 69.8 497.144 68.752L497 70H494.636V52.24L497.324 51.94V58.84ZM499.808 68.272C500.72 68.272 501.424 67.9 501.92 67.156C502.424 66.412 502.676 65.244 502.676 63.652C502.676 62.572 502.576 61.696 502.376 61.024C502.176 60.344 501.88 59.848 501.488 59.536C501.104 59.224 500.632 59.068 500.072 59.068C499.472 59.068 498.944 59.248 498.488 59.608C498.032 59.968 497.644 60.392 497.324 60.88V66.808C497.62 67.264 497.976 67.624 498.392 67.888C498.816 68.144 499.288 68.272 499.808 68.272ZM511.715 57.328V66.184C511.715 66.936 511.863 67.472 512.159 67.792C512.463 68.112 512.919 68.272 513.527 68.272C514.103 68.272 514.659 68.1 515.195 67.756C515.731 67.412 516.155 66.992 516.467 66.496V57.328H519.155V70H516.839L516.671 68.38C516.199 69.012 515.603 69.496 514.883 69.832C514.163 70.16 513.427 70.324 512.675 70.324C511.451 70.324 510.535 69.988 509.927 69.316C509.327 68.636 509.027 67.704 509.027 66.52V57.328H511.715ZM534.001 69.328C533.537 69.624 532.981 69.864 532.333 70.048C531.685 70.232 531.009 70.324 530.305 70.324C528.833 70.324 527.713 69.944 526.945 69.184C526.185 68.416 525.805 67.408 525.805 66.16V59.284H522.985V57.328H525.805V54.496L528.493 54.172V57.328H532.765L532.465 59.284H528.493V66.136C528.493 66.816 528.661 67.324 528.997 67.66C529.341 67.988 529.901 68.152 530.677 68.152C531.141 68.152 531.569 68.096 531.961 67.984C532.353 67.872 532.709 67.728 533.029 67.552L534.001 69.328ZM559.123 57.328V68.032H562.567V70H552.643V68.032H556.435V59.296H552.763V57.328H559.123ZM557.251 51.124C557.779 51.124 558.203 51.284 558.523 51.604C558.851 51.924 559.015 52.324 559.015 52.804C559.015 53.284 558.851 53.688 558.523 54.016C558.203 54.344 557.779 54.508 557.251 54.508C556.739 54.508 556.319 54.344 555.991 54.016C555.663 53.688 555.499 53.284 555.499 52.804C555.499 52.324 555.663 51.924 555.991 51.604C556.319 51.284 556.739 51.124 557.251 51.124ZM577.173 69.328C576.709 69.624 576.153 69.864 575.505 70.048C574.857 70.232 574.181 70.324 573.477 70.324C572.005 70.324 570.885 69.944 570.117 69.184C569.357 68.416 568.977 67.408 568.977 66.16V59.284H566.157V57.328H568.977V54.496L571.665 54.172V57.328H575.937L575.637 59.284H571.665V66.136C571.665 66.816 571.833 67.324 572.169 67.66C572.513 67.988 573.073 68.152 573.849 68.152C574.313 68.152 574.741 68.096 575.133 67.984C575.525 67.872 575.881 67.728 576.201 67.552L577.173 69.328ZM603.074 51.94C603.85 51.94 604.542 52.008 605.15 52.144C605.766 52.272 606.334 52.448 606.854 52.672L606.062 54.532C605.638 54.356 605.194 54.228 604.73 54.148C604.274 54.068 603.81 54.028 603.338 54.028C602.506 54.028 601.89 54.188 601.49 54.508C601.09 54.82 600.89 55.316 600.89 55.996V58.24H605.126L604.838 60.22H600.89V70H598.214V60.22H595.334V58.24H598.214V55.972C598.214 55.172 598.414 54.472 598.814 53.872C599.222 53.264 599.79 52.792 600.518 52.456C601.246 52.112 602.098 51.94 603.074 51.94ZM615.329 52.24V66.544C615.329 67.128 615.505 67.544 615.857 67.792C616.217 68.032 616.681 68.152 617.249 68.152C617.617 68.152 617.965 68.112 618.293 68.032C618.621 67.952 618.941 67.852 619.253 67.732L619.937 69.604C619.561 69.796 619.097 69.964 618.545 70.108C618.001 70.252 617.377 70.324 616.673 70.324C615.401 70.324 614.409 69.968 613.697 69.256C612.993 68.536 612.641 67.552 612.641 66.304V54.22H608.813V52.24H615.329ZM631.076 57.328V68.032H634.52V70H624.596V68.032H628.388V59.296H624.716V57.328H631.076ZM629.204 51.124C629.732 51.124 630.156 51.284 630.476 51.604C630.804 51.924 630.968 52.324 630.968 52.804C630.968 53.284 630.804 53.688 630.476 54.016C630.156 54.344 629.732 54.508 629.204 54.508C628.692 54.508 628.272 54.344 627.944 54.016C627.616 53.688 627.452 53.284 627.452 52.804C627.452 52.324 627.616 51.924 627.944 51.604C628.272 51.284 628.692 51.124 629.204 51.124ZM640.774 64.528C640.83 65.392 641.014 66.1 641.326 66.652C641.638 67.196 642.046 67.596 642.55 67.852C643.062 68.108 643.622 68.236 644.23 68.236C644.854 68.236 645.43 68.14 645.958 67.948C646.486 67.756 647.018 67.484 647.554 67.132L648.718 68.74C648.126 69.22 647.434 69.604 646.642 69.892C645.85 70.18 645.002 70.324 644.098 70.324C642.786 70.324 641.674 70.044 640.762 69.484C639.858 68.924 639.17 68.144 638.698 67.144C638.226 66.144 637.99 64.988 637.99 63.676C637.99 62.404 638.222 61.268 638.686 60.268C639.15 59.26 639.814 58.464 640.678 57.88C641.542 57.288 642.574 56.992 643.774 56.992C644.902 56.992 645.87 57.248 646.678 57.76C647.494 58.272 648.122 59 648.562 59.944C649.01 60.88 649.234 62.008 649.234 63.328C649.234 63.544 649.226 63.76 649.21 63.976C649.202 64.184 649.19 64.368 649.174 64.528H640.774ZM643.798 58.984C642.958 58.984 642.262 59.284 641.71 59.884C641.166 60.484 640.85 61.42 640.762 62.692H646.63C646.606 61.5 646.35 60.584 645.862 59.944C645.382 59.304 644.694 58.984 643.798 58.984ZM657.541 68.26C658.381 68.26 659.049 68.112 659.545 67.816C660.041 67.512 660.289 67.096 660.289 66.568C660.289 66.224 660.217 65.932 660.073 65.692C659.929 65.444 659.641 65.22 659.209 65.02C658.777 64.812 658.121 64.596 657.241 64.372C656.409 64.156 655.677 63.9 655.045 63.604C654.421 63.308 653.937 62.924 653.593 62.452C653.249 61.98 653.077 61.372 653.077 60.628C653.077 59.9 653.281 59.264 653.689 58.72C654.097 58.176 654.681 57.752 655.441 57.448C656.209 57.144 657.109 56.992 658.141 56.992C659.205 56.992 660.133 57.132 660.925 57.412C661.717 57.692 662.393 58.04 662.953 58.456L661.825 60.148C661.329 59.82 660.785 59.552 660.193 59.344C659.609 59.136 658.949 59.032 658.213 59.032C657.357 59.032 656.741 59.16 656.365 59.416C655.997 59.672 655.813 60.012 655.813 60.436C655.813 60.748 655.905 61.012 656.089 61.228C656.281 61.436 656.609 61.632 657.073 61.816C657.537 61.992 658.193 62.2 659.041 62.44C659.865 62.664 660.581 62.928 661.189 63.232C661.805 63.536 662.281 63.94 662.617 64.444C662.961 64.94 663.133 65.588 663.133 66.388C663.133 67.3 662.869 68.048 662.341 68.632C661.821 69.208 661.133 69.636 660.277 69.916C659.429 70.188 658.517 70.324 657.541 70.324C656.365 70.324 655.349 70.156 654.493 69.82C653.637 69.476 652.917 69.048 652.333 68.536L653.761 66.904C654.257 67.304 654.825 67.632 655.465 67.888C656.105 68.136 656.797 68.26 657.541 68.26ZM691.626 70H688.266L686.838 61L685.302 70H682.014L679.866 57.328H682.458L683.778 68.332L685.542 58.936H688.23L689.874 68.332L691.194 57.328H693.69L691.626 70ZM703.029 57.328V68.032H706.473V70H696.549V68.032H700.341V59.296H696.669V57.328H703.029ZM701.157 51.124C701.685 51.124 702.109 51.284 702.429 51.604C702.757 51.924 702.921 52.324 702.921 52.804C702.921 53.284 702.757 53.688 702.429 54.016C702.109 54.344 701.685 54.508 701.157 54.508C700.645 54.508 700.225 54.344 699.897 54.016C699.569 53.688 699.405 53.284 699.405 52.804C699.405 52.324 699.569 51.924 699.897 51.604C700.225 51.284 700.645 51.124 701.157 51.124ZM721.079 69.328C720.615 69.624 720.059 69.864 719.411 70.048C718.763 70.232 718.087 70.324 717.383 70.324C715.911 70.324 714.791 69.944 714.023 69.184C713.263 68.416 712.883 67.408 712.883 66.16V59.284H710.063V57.328H712.883V54.496L715.571 54.172V57.328H719.843L719.543 59.284H715.571V66.136C715.571 66.816 715.739 67.324 716.075 67.66C716.419 67.988 716.979 68.152 717.755 68.152C718.219 68.152 718.647 68.096 719.039 67.984C719.431 67.872 719.787 67.728 720.107 67.552L721.079 69.328ZM727.574 51.976V58.876C728.086 58.252 728.686 57.784 729.374 57.472C730.062 57.152 730.77 56.992 731.498 56.992C732.69 56.992 733.578 57.324 734.162 57.988C734.746 58.644 735.038 59.568 735.038 60.76V70H732.35V61.18C732.35 60.42 732.206 59.876 731.918 59.548C731.63 59.212 731.166 59.044 730.526 59.044C730.126 59.044 729.742 59.136 729.374 59.32C729.014 59.496 728.678 59.728 728.366 60.016C728.062 60.304 727.798 60.612 727.574 60.94V70H724.886V52.264L727.574 51.976ZM760.591 57.328V68.032H764.035V70H754.111V68.032H757.903V59.296H754.231V57.328H760.591ZM758.719 51.124C759.247 51.124 759.671 51.284 759.991 51.604C760.319 51.924 760.483 52.324 760.483 52.804C760.483 53.284 760.319 53.688 759.991 54.016C759.671 54.344 759.247 54.508 758.719 54.508C758.207 54.508 757.787 54.344 757.459 54.016C757.131 53.688 756.967 53.284 756.967 52.804C756.967 52.324 757.131 51.924 757.459 51.604C757.787 51.284 758.207 51.124 758.719 51.124ZM776.794 56.992C777.274 56.992 777.706 57.096 778.09 57.304C778.474 57.512 778.774 57.876 778.99 58.396C779.214 58.916 779.326 59.644 779.326 60.58V70H776.938V60.952C776.938 60.288 776.89 59.812 776.794 59.524C776.706 59.236 776.47 59.092 776.086 59.092C775.782 59.092 775.474 59.188 775.162 59.38C774.85 59.564 774.534 59.884 774.214 60.34V70H772.042V60.952C772.042 60.288 771.994 59.812 771.898 59.524C771.81 59.236 771.574 59.092 771.19 59.092C770.878 59.092 770.566 59.188 770.254 59.38C769.95 59.564 769.638 59.884 769.318 60.34V70H766.918V57.328H768.946L769.126 58.696C769.486 58.192 769.878 57.784 770.302 57.472C770.726 57.152 771.238 56.992 771.838 56.992C772.318 56.992 772.754 57.112 773.146 57.352C773.538 57.592 773.826 58.012 774.01 58.612C774.362 58.132 774.762 57.744 775.21 57.448C775.658 57.144 776.186 56.992 776.794 56.992ZM792.133 66.892C792.133 67.388 792.209 67.752 792.361 67.984C792.513 68.208 792.757 68.376 793.093 68.488L792.493 70.312C791.869 70.24 791.333 70.068 790.885 69.796C790.437 69.524 790.097 69.112 789.865 68.56C789.401 69.144 788.813 69.584 788.101 69.88C787.389 70.176 786.629 70.324 785.821 70.324C784.541 70.324 783.525 69.964 782.773 69.244C782.029 68.516 781.657 67.564 781.657 66.388C781.657 65.052 782.177 64.024 783.217 63.304C784.257 62.584 785.745 62.224 787.681 62.224H789.493V61.396C789.493 60.58 789.245 59.992 788.749 59.632C788.261 59.272 787.569 59.092 786.673 59.092C786.257 59.092 785.753 59.148 785.161 59.26C784.569 59.364 783.949 59.528 783.301 59.752L782.641 57.856C783.433 57.56 784.209 57.344 784.969 57.208C785.729 57.064 786.433 56.992 787.081 56.992C788.777 56.992 790.041 57.368 790.873 58.12C791.713 58.872 792.133 59.912 792.133 61.24V66.892ZM786.637 68.344C787.181 68.344 787.713 68.2 788.233 67.912C788.753 67.624 789.173 67.22 789.493 66.7V63.904H788.005C786.741 63.904 785.837 64.116 785.293 64.54C784.749 64.956 784.477 65.532 784.477 66.268C784.477 66.94 784.657 67.456 785.017 67.816C785.385 68.168 785.925 68.344 786.637 68.344ZM807.507 55.72L808.227 57.952C807.723 58.12 807.167 58.232 806.559 58.288C805.959 58.344 805.287 58.372 804.543 58.372C805.303 58.708 805.875 59.14 806.259 59.668C806.643 60.188 806.835 60.828 806.835 61.588C806.835 62.412 806.635 63.148 806.235 63.796C805.835 64.444 805.263 64.952 804.519 65.32C803.775 65.688 802.883 65.872 801.843 65.872C801.475 65.872 801.155 65.856 800.883 65.824C800.619 65.792 800.359 65.74 800.103 65.668C799.943 65.78 799.807 65.932 799.695 66.124C799.591 66.308 799.539 66.504 799.539 66.712C799.539 66.968 799.643 67.192 799.851 67.384C800.067 67.568 800.491 67.66 801.123 67.66H803.331C804.235 67.66 805.031 67.816 805.719 68.128C806.415 68.432 806.959 68.852 807.351 69.388C807.751 69.916 807.951 70.516 807.951 71.188C807.951 72.452 807.407 73.432 806.319 74.128C805.231 74.824 803.663 75.172 801.615 75.172C800.167 75.172 799.031 75.024 798.207 74.728C797.383 74.432 796.803 73.992 796.467 73.408C796.131 72.824 795.963 72.108 795.963 71.26H798.375C798.375 71.7 798.459 72.064 798.627 72.352C798.803 72.64 799.127 72.856 799.599 73C800.071 73.144 800.751 73.216 801.639 73.216C802.527 73.216 803.231 73.14 803.751 72.988C804.279 72.844 804.659 72.632 804.891 72.352C805.131 72.08 805.251 71.752 805.251 71.368C805.251 70.856 805.027 70.46 804.579 70.18C804.131 69.9 803.531 69.76 802.779 69.76H800.607C799.407 69.76 798.527 69.516 797.967 69.028C797.415 68.54 797.139 67.972 797.139 67.324C797.139 66.892 797.259 66.476 797.499 66.076C797.747 65.676 798.099 65.328 798.555 65.032C797.795 64.632 797.239 64.148 796.887 63.58C796.543 63.004 796.371 62.308 796.371 61.492C796.371 60.596 796.595 59.812 797.043 59.14C797.491 58.468 798.111 57.944 798.903 57.568C799.703 57.192 800.623 57.004 801.663 57.004C802.679 57.004 803.527 56.952 804.207 56.848C804.887 56.736 805.479 56.58 805.983 56.38C806.495 56.18 807.003 55.96 807.507 55.72ZM801.687 58.852C800.831 58.852 800.187 59.096 799.755 59.584C799.323 60.064 799.107 60.692 799.107 61.468C799.107 62.268 799.327 62.912 799.767 63.4C800.215 63.88 800.867 64.12 801.723 64.12C802.515 64.12 803.119 63.888 803.535 63.424C803.959 62.96 804.171 62.3 804.171 61.444C804.171 60.58 803.963 59.932 803.547 59.5C803.131 59.068 802.511 58.852 801.687 58.852ZM818.154 57.328V68.032H821.598V70H811.674V68.032H815.466V59.296H811.794V57.328H818.154ZM816.282 51.124C816.81 51.124 817.234 51.284 817.554 51.604C817.882 51.924 818.046 52.324 818.046 52.804C818.046 53.284 817.882 53.688 817.554 54.016C817.234 54.344 816.81 54.508 816.282 54.508C815.77 54.508 815.35 54.344 815.022 54.016C814.694 53.688 814.53 53.284 814.53 52.804C814.53 52.324 814.694 51.924 815.022 51.604C815.35 51.284 815.77 51.124 816.282 51.124ZM825.62 70V57.328H827.936L828.14 58.972C828.668 58.324 829.292 57.832 830.012 57.496C830.732 57.16 831.472 56.992 832.232 56.992C833.416 56.992 834.3 57.324 834.884 57.988C835.476 58.644 835.772 59.568 835.772 60.76V70H833.084V62.092C833.084 61.356 833.04 60.764 832.952 60.316C832.864 59.868 832.688 59.544 832.424 59.344C832.168 59.144 831.784 59.044 831.272 59.044C830.864 59.044 830.476 59.132 830.108 59.308C829.74 59.484 829.404 59.716 829.1 60.004C828.796 60.284 828.532 60.584 828.308 60.904V70H825.62ZM849.695 66.892C849.695 67.388 849.771 67.752 849.923 67.984C850.075 68.208 850.319 68.376 850.655 68.488L850.055 70.312C849.431 70.24 848.895 70.068 848.447 69.796C847.999 69.524 847.659 69.112 847.427 68.56C846.963 69.144 846.375 69.584 845.663 69.88C844.951 70.176 844.191 70.324 843.383 70.324C842.103 70.324 841.087 69.964 840.335 69.244C839.591 68.516 839.219 67.564 839.219 66.388C839.219 65.052 839.739 64.024 840.779 63.304C841.819 62.584 843.307 62.224 845.243 62.224H847.055V61.396C847.055 60.58 846.807 59.992 846.311 59.632C845.823 59.272 845.131 59.092 844.235 59.092C843.819 59.092 843.315 59.148 842.723 59.26C842.131 59.364 841.511 59.528 840.863 59.752L840.203 57.856C840.995 57.56 841.771 57.344 842.531 57.208C843.291 57.064 843.995 56.992 844.643 56.992C846.339 56.992 847.603 57.368 848.435 58.12C849.275 58.872 849.695 59.912 849.695 61.24V66.892ZM844.199 68.344C844.743 68.344 845.275 68.2 845.795 67.912C846.315 67.624 846.735 67.22 847.055 66.7V63.904H845.567C844.303 63.904 843.399 64.116 842.855 64.54C842.311 64.956 842.039 65.532 842.039 66.268C842.039 66.94 842.219 67.456 842.579 67.816C842.947 68.168 843.487 68.344 844.199 68.344ZM864.986 69.328C864.522 69.624 863.966 69.864 863.318 70.048C862.67 70.232 861.994 70.324 861.29 70.324C859.818 70.324 858.698 69.944 857.93 69.184C857.17 68.416 856.79 67.408 856.79 66.16V59.284H853.97V57.328H856.79V54.496L859.478 54.172V57.328H863.75L863.45 59.284H859.478V66.136C859.478 66.816 859.646 67.324 859.982 67.66C860.326 67.988 860.886 68.152 861.662 68.152C862.126 68.152 862.554 68.096 862.946 67.984C863.338 67.872 863.694 67.728 864.014 67.552L864.986 69.328ZM875.716 57.328V68.032H879.16V70H869.236V68.032H873.028V59.296H869.356V57.328H875.716ZM873.844 51.124C874.372 51.124 874.796 51.284 875.116 51.604C875.444 51.924 875.608 52.324 875.608 52.804C875.608 53.284 875.444 53.688 875.116 54.016C874.796 54.344 874.372 54.508 873.844 54.508C873.332 54.508 872.912 54.344 872.584 54.016C872.256 53.688 872.092 53.284 872.092 52.804C872.092 52.324 872.256 51.924 872.584 51.604C872.912 51.284 873.332 51.124 873.844 51.124ZM888.259 56.992C889.499 56.992 890.543 57.268 891.391 57.82C892.239 58.372 892.879 59.144 893.311 60.136C893.751 61.128 893.971 62.296 893.971 63.64C893.971 64.976 893.747 66.148 893.299 67.156C892.859 68.156 892.211 68.936 891.355 69.496C890.507 70.048 889.471 70.324 888.247 70.324C887.023 70.324 885.983 70.056 885.127 69.52C884.279 68.976 883.631 68.204 883.183 67.204C882.743 66.204 882.523 65.024 882.523 63.664C882.523 62.344 882.743 61.184 883.183 60.184C883.631 59.184 884.283 58.404 885.139 57.844C885.995 57.276 887.035 56.992 888.259 56.992ZM888.259 59.08C887.291 59.08 886.563 59.452 886.075 60.196C885.587 60.932 885.343 62.088 885.343 63.664C885.343 65.232 885.583 66.388 886.063 67.132C886.551 67.876 887.279 68.248 888.247 68.248C889.215 68.248 889.939 67.876 890.419 67.132C890.907 66.388 891.151 65.224 891.151 63.64C891.151 62.08 890.911 60.932 890.431 60.196C889.951 59.452 889.227 59.08 888.259 59.08ZM897.574 70V57.328H899.89L900.094 58.972C900.622 58.324 901.246 57.832 901.966 57.496C902.686 57.16 903.426 56.992 904.186 56.992C905.37 56.992 906.254 57.324 906.838 57.988C907.43 58.644 907.726 59.568 907.726 60.76V70H905.038V62.092C905.038 61.356 904.994 60.764 904.906 60.316C904.818 59.868 904.642 59.544 904.378 59.344C904.122 59.144 903.738 59.044 903.226 59.044C902.818 59.044 902.43 59.132 902.062 59.308C901.694 59.484 901.358 59.716 901.054 60.004C900.75 60.284 900.486 60.584 900.262 60.904V70H897.574Z" fill="white"/>
<rect width="41.472" height="28.704" transform="translate(11)" fill="#282C33"/>
<path d="M29.56 19.616C29.56 21.0453 29.0373 22.2507 27.992 23.232C26.968 24.2133 25.72 24.704 24.248 24.704C22.7333 24.704 21.4747 24.2133 20.472 23.232C19.4907 22.2507 19 21.0453 19 19.616C19 18.9333 19.096 18.208 19.288 17.44C19.48 16.672 19.864 15.68 20.44 14.464L25.4 4H30.2L27.544 15.584C28.1413 16.0107 28.6213 16.576 28.984 17.28C29.368 17.9627 29.56 18.7413 29.56 19.616ZM43.8 19.616C43.8 21.0453 43.2773 22.2507 42.232 23.232C41.1867 24.2133 39.9387 24.704 38.488 24.704C37.016 24.704 35.768 24.2133 34.744 23.232C33.7413 22.2507 33.24 21.0453 33.24 19.616C33.24 18.9333 33.336 18.208 33.528 17.44C33.72 16.672 34.1147 15.68 34.712 14.464L39.704 4H44.472L41.784 15.584C42.4027 16.0107 42.8933 16.576 43.256 17.28C43.6187 17.9627 43.8 18.7413 43.8 19.616Z" fill="#ABB2BF"/>
<rect x="836.5" y="108.5" width="105" height="64" stroke="#ABB2BF"/>
<path d="M855.388 142.364V140.612H865.012V142.364H855.388ZM892.185 144.788H885.645L884.325 149H882.273L887.649 132.476H890.313L895.689 149H893.505L892.185 144.788ZM886.185 143.06H891.645L888.933 134.228L886.185 143.06ZM898.584 149V136.364H900.3L900.456 138.116C900.968 137.468 901.608 136.972 902.376 136.628C903.152 136.276 903.904 136.1 904.632 136.1C905.872 136.1 906.772 136.428 907.332 137.084C907.9 137.74 908.184 138.652 908.184 139.82V149H906.168V141.308C906.168 140.444 906.12 139.748 906.024 139.22C905.928 138.684 905.728 138.296 905.424 138.056C905.12 137.808 904.648 137.684 904.008 137.684C903.512 137.684 903.044 137.792 902.604 138.008C902.172 138.224 901.784 138.496 901.44 138.824C901.104 139.144 900.824 139.468 900.6 139.796V149H898.584ZM923.007 148.364C922.575 148.652 922.051 148.876 921.435 149.036C920.819 149.196 920.215 149.276 919.623 149.276C918.263 149.276 917.215 148.92 916.479 148.208C915.743 147.496 915.375 146.58 915.375 145.46V137.924H912.471V136.364H915.375V133.496L917.391 133.256V136.364H921.759L921.519 137.924H917.391V145.436C917.391 146.14 917.575 146.676 917.943 147.044C918.319 147.412 918.939 147.596 919.803 147.596C920.275 147.596 920.711 147.54 921.111 147.428C921.511 147.316 921.883 147.172 922.227 146.996L923.007 148.364Z" fill="white"/>
<rect width="41.472" height="28.704" transform="translate(884 94)" fill="#282C33"/>
<path d="M902.56 113.616C902.56 115.045 902.037 116.251 900.992 117.232C899.968 118.213 898.72 118.704 897.248 118.704C895.733 118.704 894.475 118.213 893.472 117.232C892.491 116.251 892 115.045 892 113.616C892 112.933 892.096 112.208 892.288 111.44C892.48 110.672 892.864 109.68 893.44 108.464L898.4 98H903.2L900.544 109.584C901.141 110.011 901.621 110.576 901.984 111.28C902.368 111.963 902.56 112.741 902.56 113.616ZM916.8 113.616C916.8 115.045 916.277 116.251 915.232 117.232C914.187 118.213 912.939 118.704 911.488 118.704C910.016 118.704 908.768 118.213 907.744 117.232C906.741 116.251 906.24 115.045 906.24 113.616C906.24 112.933 906.336 112.208 906.528 111.44C906.72 110.672 907.115 109.68 907.712 108.464L912.704 98H917.472L914.784 109.584C915.403 110.011 915.893 110.576 916.256 111.28C916.619 111.963 916.8 112.741 916.8 113.616Z" fill="#ABB2BF"/>
</svg>
