<svg width="701" height="42" viewBox="0 0 701 42" fill="none" xmlns="http://www.w3.org/2000/svg">
<path d="M15.072 17.52L14.176 24.32H16.544V26.88H13.824L13.168 32H10.16L10.832 26.88H6.784L6.112 32H3.104L3.776 26.88H1.488V24.32H4.112L5.04 17.52H2.672V14.944H5.376L6.032 9.92H9.056L8.352 14.944H12.416L13.088 9.92H16.096L15.408 14.944H17.728V17.52H15.072ZM7.12 24.32H11.168L12.08 17.52H8.016L7.12 24.32Z" fill="#C778DD"/>
<path d="M31.088 14.656C32.5813 14.656 33.776 15.024 34.672 15.76C35.568 16.4853 36.2187 17.5147 36.624 18.848C37.0293 20.1707 37.232 21.728 37.232 23.52C37.232 25.2373 36.9867 26.768 36.496 28.112C36.0053 29.456 35.2747 30.512 34.304 31.28C33.344 32.048 32.1493 32.432 30.72 32.432C28.9493 32.432 27.52 31.808 26.432 30.56V38.496L22.848 38.896V15.104H25.968L26.192 17.28C26.832 16.4053 27.5733 15.7493 28.416 15.312C29.2693 14.8747 30.16 14.656 31.088 14.656ZM30.096 17.424C29.296 17.424 28.592 17.664 27.984 18.144C27.376 18.624 26.8587 19.1893 26.432 19.84V27.744C26.8373 28.352 27.3173 28.8213 27.872 29.152C28.4373 29.472 29.072 29.632 29.776 29.632C30.9813 29.632 31.8987 29.1467 32.528 28.176C33.1573 27.2053 33.472 25.6587 33.472 23.536C33.472 22.096 33.344 20.928 33.088 20.032C32.8427 19.1253 32.4693 18.464 31.968 18.048C31.4773 17.632 30.8533 17.424 30.096 17.424ZM42.1955 32V29.44H44.6755V17.648H42.1955V15.104H47.4115L48.0675 19.024C48.6968 17.6053 49.4755 16.528 50.4035 15.792C51.3422 15.0453 52.5475 14.672 54.0195 14.672C54.5208 14.672 54.9688 14.7147 55.3635 14.8C55.7688 14.8747 56.1688 14.976 56.5635 15.104L55.4915 18.176C55.1502 18.08 54.8302 18.0107 54.5315 17.968C54.2328 17.9147 53.9022 17.888 53.5395 17.888C52.3128 17.888 51.2515 18.3467 50.3555 19.264C49.4702 20.1813 48.7715 21.4827 48.2595 23.168V29.44H51.6675V32H42.1955ZM53.3955 21.328V17.168L53.8435 15.104H56.5635L55.9555 21.328H53.3955ZM67.991 14.656C69.6443 14.656 71.0363 15.024 72.167 15.76C73.2977 16.496 74.151 17.5253 74.727 18.848C75.3137 20.1707 75.607 21.728 75.607 23.52C75.607 25.3013 75.3083 26.864 74.711 28.208C74.1243 29.5413 73.2603 30.5813 72.119 31.328C70.9883 32.064 69.607 32.432 67.975 32.432C66.343 32.432 64.9563 32.0747 63.815 31.36C62.6843 30.6347 61.8203 29.6053 61.223 28.272C60.6363 26.9387 60.343 25.3653 60.343 23.552C60.343 21.792 60.6363 20.2453 61.223 18.912C61.8203 17.5787 62.6897 16.5387 63.831 15.792C64.9723 15.0347 66.359 14.656 67.991 14.656ZM67.991 17.44C66.7003 17.44 65.7297 17.936 65.079 18.928C64.4283 19.9093 64.103 21.4507 64.103 23.552C64.103 25.6427 64.423 27.184 65.063 28.176C65.7137 29.168 66.6843 29.664 67.975 29.664C69.2657 29.664 70.231 29.168 70.871 28.176C71.5217 27.184 71.847 25.632 71.847 23.52C71.847 21.44 71.527 19.9093 70.887 18.928C70.247 17.936 69.2817 17.44 67.991 17.44ZM92.1385 15.104V28.448C92.1385 30.5493 91.7012 32.2933 90.8265 33.68C89.9625 35.0667 88.6932 36.1707 87.0185 36.992C85.3438 37.824 83.3012 38.4587 80.8905 38.896L80.3145 36.144C81.9892 35.824 83.4452 35.3813 84.6825 34.816C85.9198 34.2507 86.8745 33.4773 87.5465 32.496C88.2185 31.5147 88.5545 30.2453 88.5545 28.688V17.728H81.8825V15.104H92.1385ZM89.3385 6.832C90.0318 6.832 90.5972 7.04533 91.0345 7.472C91.4718 7.89867 91.6905 8.432 91.6905 9.072C91.6905 9.712 91.4718 10.2507 91.0345 10.688C90.5972 11.1253 90.0318 11.344 89.3385 11.344C88.6452 11.344 88.0798 11.1253 87.6425 10.688C87.2158 10.2507 87.0025 9.712 87.0025 9.072C87.0025 8.432 87.2158 7.89867 87.6425 7.472C88.0798 7.04533 88.6452 6.832 89.3385 6.832ZM102.574 24.704C102.649 25.856 102.894 26.8 103.31 27.536C103.726 28.2613 104.27 28.7947 104.942 29.136C105.625 29.4773 106.371 29.648 107.182 29.648C108.014 29.648 108.782 29.52 109.486 29.264C110.19 29.008 110.899 28.6453 111.614 28.176L113.166 30.32C112.377 30.96 111.454 31.472 110.398 31.856C109.342 32.24 108.211 32.432 107.006 32.432C105.257 32.432 103.774 32.0587 102.558 31.312C101.353 30.5653 100.435 29.5253 99.806 28.192C99.1767 26.8587 98.862 25.3173 98.862 23.568C98.862 21.872 99.1713 20.3573 99.79 19.024C100.409 17.68 101.294 16.6187 102.446 15.84C103.598 15.0507 104.974 14.656 106.574 14.656C108.078 14.656 109.369 14.9973 110.446 15.68C111.534 16.3627 112.371 17.3333 112.958 18.592C113.555 19.84 113.854 21.344 113.854 23.104C113.854 23.392 113.843 23.68 113.822 23.968C113.811 24.2453 113.795 24.4907 113.774 24.704H102.574ZM106.606 17.312C105.486 17.312 104.558 17.712 103.822 18.512C103.097 19.312 102.675 20.56 102.558 22.256H110.382C110.35 20.6667 110.009 19.4453 109.358 18.592C108.718 17.7387 107.801 17.312 106.606 17.312ZM126.93 29.488C127.719 29.488 128.455 29.3547 129.138 29.088C129.82 28.8107 130.471 28.4533 131.09 28.016L132.753 30.32C132.018 30.9493 131.122 31.4613 130.066 31.856C129.02 32.24 127.938 32.432 126.818 32.432C125.09 32.432 123.612 32.0693 122.386 31.344C121.159 30.608 120.22 29.5787 119.57 28.256C118.919 26.9333 118.594 25.392 118.594 23.632C118.594 21.9147 118.919 20.384 119.57 19.04C120.231 17.6853 121.18 16.6187 122.418 15.84C123.655 15.0507 125.143 14.656 126.882 14.656C128.034 14.656 129.095 14.8267 130.066 15.168C131.036 15.5093 131.927 16.016 132.738 16.688L131.09 18.944C130.428 18.4853 129.751 18.1387 129.058 17.904C128.375 17.6587 127.671 17.536 126.946 17.536C125.612 17.536 124.519 18.0267 123.666 19.008C122.823 19.9893 122.402 21.5307 122.402 23.632C122.402 25.04 122.594 26.176 122.978 27.04C123.372 27.8933 123.911 28.5173 124.594 28.912C125.276 29.296 126.055 29.488 126.93 29.488ZM152.085 31.104C151.466 31.4987 150.725 31.8187 149.861 32.064C148.997 32.3093 148.096 32.432 147.157 32.432C145.194 32.432 143.701 31.9253 142.677 30.912C141.664 29.888 141.157 28.544 141.157 26.88V17.712H137.397V15.104H141.157V11.328L144.741 10.896V15.104H150.437L150.037 17.712H144.741V26.848C144.741 27.7547 144.965 28.432 145.413 28.88C145.872 29.3173 146.618 29.536 147.653 29.536C148.272 29.536 148.842 29.4613 149.365 29.312C149.888 29.1627 150.362 28.9707 150.789 28.736L152.085 31.104ZM163.305 29.68C164.425 29.68 165.315 29.4827 165.977 29.088C166.638 28.6827 166.969 28.128 166.969 27.424C166.969 26.9653 166.873 26.576 166.681 26.256C166.489 25.9253 166.105 25.6267 165.529 25.36C164.953 25.0827 164.078 24.7947 162.905 24.496C161.795 24.208 160.819 23.8667 159.977 23.472C159.145 23.0773 158.499 22.5653 158.041 21.936C157.582 21.3067 157.353 20.496 157.353 19.504C157.353 18.5333 157.625 17.6853 158.169 16.96C158.713 16.2347 159.491 15.6693 160.505 15.264C161.529 14.8587 162.729 14.656 164.105 14.656C165.523 14.656 166.761 14.8427 167.817 15.216C168.873 15.5893 169.774 16.0533 170.521 16.608L169.017 18.864C168.355 18.4267 167.63 18.0693 166.841 17.792C166.062 17.5147 165.182 17.376 164.201 17.376C163.059 17.376 162.238 17.5467 161.737 17.888C161.246 18.2293 161.001 18.6827 161.001 19.248C161.001 19.664 161.123 20.016 161.369 20.304C161.625 20.5813 162.062 20.8427 162.681 21.088C163.299 21.3227 164.174 21.6 165.305 21.92C166.403 22.2187 167.358 22.5707 168.169 22.976C168.99 23.3813 169.625 23.92 170.073 24.592C170.531 25.2533 170.76 26.1173 170.76 27.184C170.76 28.4 170.409 29.3973 169.705 30.176C169.011 30.944 168.094 31.5147 166.953 31.888C165.822 32.2507 164.606 32.432 163.305 32.432C161.737 32.432 160.382 32.208 159.241 31.76C158.099 31.3013 157.139 30.7307 156.361 30.048L158.265 27.872C158.926 28.4053 159.683 28.8427 160.537 29.184C161.39 29.5147 162.313 29.68 163.305 29.68Z" fill="white"/>
<path fill-rule="evenodd" clip-rule="evenodd" d="M701 21.5H190V20.5H701V21.5Z" fill="#C778DD"/>
</svg>
